<svg width="192" height="192" viewBox="0 0 192 192" fill="none" xmlns="http://www.w3.org/2000/svg">
<path d="M83.08 174.303C84.0365 175.052 85.1513 175.572 86.3395 175.824C87.5277 176.077 88.7578 176.054 89.936 175.759L153.936 159.759C155.668 159.328 157.206 158.33 158.305 156.924C159.404 155.518 160.001 153.784 160 151.999V39.999C159.999 38.2145 159.402 36.4814 158.304 35.0753C157.205 33.6692 155.667 32.6708 153.936 32.239L89.936 16.239C88.7573 15.9498 87.5284 15.9317 86.3417 16.1861C85.155 16.4406 84.0415 16.9609 83.085 17.7079C82.1285 18.455 81.3539 19.4092 80.8195 20.4989C80.2852 21.5886 80.005 22.7853 80 23.999V31.999H48C45.8783 31.999 43.8434 32.8418 42.3431 34.3421C40.8429 35.8424 40 37.8772 40 39.999V151.999C40 154.121 40.8429 156.156 42.3431 157.656C43.8434 159.156 45.8783 159.999 48 159.999H80V167.999C80 170.463 81.136 172.791 83.08 174.303ZM96 34.247L144 46.247V145.751L96 157.751V34.247ZM56 143.999V47.999H80V143.999H56Z" fill="white"/>
<path d="M113.936 105.272C117.504 104.376 120 101.176 120 97.5042V94.4882C119.999 92.3665 119.155 90.332 117.654 88.8325C116.153 87.333 114.118 86.4911 111.996 86.4922C109.874 86.4932 107.84 87.3371 106.34 88.8382C104.841 90.3392 103.999 92.3745 104 94.4962V97.5122C104 98.7274 104.278 99.9265 104.81 101.019C105.343 102.111 106.118 103.067 107.076 103.815C108.034 104.563 109.149 105.083 110.338 105.335C111.526 105.588 112.757 105.566 113.936 105.272Z" fill="white"/>
</svg>
