<svg width="31" height="31" viewBox="0 0 31 31" fill="none" xmlns="http://www.w3.org/2000/svg">
<path d="M11.625 11.625H13.5625V23.25H11.625V11.625Z" fill="white"/>
<path d="M17.4375 11.625H19.375V23.25H17.4375V11.625Z" fill="white"/>
<path d="M3.875 5.8125V7.75H5.8125V27.125C5.8125 27.6389 6.01663 28.1317 6.37998 28.495C6.74333 28.8584 7.23614 29.0625 7.75 29.0625H23.25C23.7639 29.0625 24.2567 28.8584 24.62 28.495C24.9834 28.1317 25.1875 27.6389 25.1875 27.125V7.75H27.125V5.8125H3.875ZM7.75 27.125V7.75H23.25V27.125H7.75Z" fill="white"/>
<path d="M11.625 1.9375H19.375V3.875H11.625V1.9375Z" fill="white"/>
</svg>
