<svg width="26" height="29" viewBox="0 0 26 29" fill="none" xmlns="http://www.w3.org/2000/svg">
<path d="M10.026 28.2264C9.00059 28.2251 8.0173 27.817 7.29161 27.0916C6.56715 26.3661 6.15846 25.3827 6.15723 24.3567C6.15723 24.1515 6.23898 23.9545 6.38387 23.8093C6.52876 23.6642 6.72565 23.5825 6.93122 23.5825C7.13679 23.5825 7.33372 23.6642 7.47861 23.8093C7.6235 23.9545 7.70521 24.1515 7.70521 24.3567C7.70521 24.9726 7.95043 25.5632 8.3851 25.9986C8.82101 26.4341 9.41047 26.6788 10.0272 26.6788C10.6427 26.6788 11.2334 26.4341 11.6681 25.9986C12.104 25.5632 12.348 24.9726 12.348 24.3567C12.348 24.1515 12.4297 23.9545 12.5746 23.8093C12.7195 23.6642 12.9164 23.5825 13.1219 23.5825C13.3275 23.5825 13.5244 23.6642 13.6693 23.8093C13.8142 23.9545 13.8959 24.1515 13.8959 24.3567C13.8947 25.3828 13.486 26.3666 12.7616 27.092C12.0359 27.8175 11.0514 28.2254 10.026 28.2264Z" fill="#CBB989"/>
<path d="M18.8223 22.9121H1.80436C1.43532 22.9119 1.07618 22.7987 0.772775 22.5878C0.470609 22.3768 0.240272 22.0783 0.11148 21.7322C-0.016074 21.3861 -0.0346489 21.0092 0.0582302 20.6522C0.151109 20.2951 0.350497 19.975 0.630373 19.7348C0.656379 19.7123 0.684845 19.6916 0.713328 19.6729C1.46131 19.0218 2.06071 18.2178 2.47186 17.3151C2.88176 16.4126 3.09475 15.4325 3.09475 14.4406V11.5619C3.08856 9.93874 3.63222 8.36114 4.63779 7.0869C5.64336 5.81265 7.05017 4.91696 8.63035 4.54597C8.8285 4.50422 9.03405 4.54126 9.20495 4.64952C9.37585 4.75766 9.49723 4.92835 9.54429 5.12506C9.59011 5.32164 9.55792 5.52875 9.45389 5.70204C9.34987 5.87533 9.18267 6.00094 8.987 6.05222C7.74614 6.34319 6.64028 7.04652 5.85142 8.04738C5.06133 9.04812 4.63533 10.2872 4.64028 11.5619V14.4406C4.64028 15.672 4.37279 16.8885 3.85514 18.006C3.33873 19.1234 2.58456 20.1148 1.64586 20.9116C1.62976 20.924 1.61736 20.9351 1.60002 20.9462C1.5641 20.9918 1.54552 21.0482 1.54552 21.106C1.54676 21.1742 1.57402 21.2391 1.62232 21.2873C1.67061 21.3353 1.735 21.3628 1.80312 21.3637H18.8223C18.8904 21.3628 18.9548 21.3353 19.0031 21.2873C19.0514 21.2391 19.0786 21.1742 19.0799 21.106C19.0811 21.0479 19.0613 20.9913 19.0242 20.9462L18.9796 20.9116C18.0632 20.1345 17.3251 19.1702 16.8124 18.0836C16.7245 17.8982 16.7146 17.6855 16.7839 17.4924C16.852 17.2992 16.9957 17.1415 17.1814 17.0537C17.3659 16.966 17.5789 16.9556 17.7721 17.0247C17.9653 17.0938 18.1226 17.2367 18.2105 17.4222C18.6179 18.2829 19.1975 19.0502 19.9158 19.6754C19.943 19.6934 19.969 19.7128 19.9938 19.7336C20.2749 19.9731 20.4755 20.2932 20.5696 20.6504C20.6625 21.0077 20.644 21.3851 20.5164 21.7316C20.3888 22.0782 20.1585 22.3771 19.8551 22.5883C19.5517 22.7993 19.1913 22.9124 18.8223 22.9121Z" fill="#CBB989"/>
<path d="M18.57 14.8643C22.674 14.8643 26.0003 11.5368 26.0003 7.43215C26.0003 3.3275 22.674 0 18.57 0C14.466 0 11.1396 3.3275 11.1396 7.43215C11.1396 11.5368 14.466 14.8643 18.57 14.8643Z" fill="#ED1C24"/>
<path d="M19.2138 10.27C19.0082 10.27 18.8113 10.1884 18.6664 10.0432C18.5216 9.89801 18.4398 9.70105 18.4398 9.4958V6.14266H17.9234C17.7178 6.14266 17.5209 6.06103 17.3761 5.91586C17.2312 5.77069 17.1494 5.57373 17.1494 5.36848C17.1494 5.16311 17.2312 4.96628 17.3761 4.82098C17.5209 4.67581 17.7178 4.5943 17.9234 4.5943H19.2126C19.4182 4.5943 19.6151 4.67581 19.7599 4.82098C19.9048 4.96628 19.9866 5.16311 19.9866 5.36848V9.4958C19.9866 9.70093 19.9048 9.89763 19.7599 10.0428C19.6151 10.188 19.4194 10.2696 19.2138 10.27Z" fill="white"/>
</svg>
