<svg width="20" height="22" viewBox="0 0 20 22" fill="none" xmlns="http://www.w3.org/2000/svg">
<path d="M18.3333 1.69231H15V0H13.3333V1.69231H6.66667V0H5V1.69231H1.66667C0.75 1.69231 0 2.45385 0 3.38462V20.3077C0 21.2385 0.75 22 1.66667 22H18.3333C19.25 22 20 21.2385 20 20.3077V3.38462C20 2.45385 19.25 1.69231 18.3333 1.69231ZM18.3333 20.3077H1.66667V8.46154H18.3333V20.3077ZM18.3333 6.76923H1.66667V3.38462H5V5.07692H6.66667V3.38462H13.3333V5.07692H15V3.38462H18.3333V6.76923Z" fill="#CBB989"/>
</svg>
