<svg width="55" height="58" viewBox="0 0 55 58" fill="none" xmlns="http://www.w3.org/2000/svg">
<g filter="url(#filter0_d)">
<path d="M27.5 3.3125C21.3733 3.38642 15.5183 5.85311 11.1857 10.1857C6.85311 14.5183 4.38642 20.3733 4.3125 26.5C4.38642 32.6267 6.85311 38.4817 11.1857 42.8143C15.5183 47.1469 21.3733 49.6136 27.5 49.6875C33.6267 49.6136 39.4817 47.1469 43.8143 42.8143C48.1469 38.4817 50.6136 32.6267 50.6875 26.5C50.6136 20.3733 48.1469 14.5183 43.8143 10.1857C39.4817 5.85311 33.6267 3.38642 27.5 3.3125ZM40.75 28.1562H29.1562V39.75H25.8438V28.1562H14.25V24.8438H25.8438V13.25H29.1562V24.8438H40.75V28.1562Z" fill="#CBB989"/>
</g>
<defs>
<filter id="filter0_d" x="-3" y="0" width="61" height="61" filterUnits="userSpaceOnUse" color-interpolation-filters="sRGB">
<feFlood flood-opacity="0" result="BackgroundImageFix"/>
<feColorMatrix in="SourceAlpha" type="matrix" values="0 0 0 0 0 0 0 0 0 0 0 0 0 0 0 0 0 0 127 0"/>
<feOffset dy="4"/>
<feGaussianBlur stdDeviation="2"/>
<feColorMatrix type="matrix" values="0 0 0 0 0 0 0 0 0 0 0 0 0 0 0 0 0 0 0.25 0"/>
<feBlend mode="normal" in2="BackgroundImageFix" result="effect1_dropShadow"/>
<feBlend mode="normal" in="SourceGraphic" in2="effect1_dropShadow" result="shape"/>
</filter>
</defs>
</svg>
