<svg width="17" height="14" viewBox="0 0 17 14" fill="none" xmlns="http://www.w3.org/2000/svg">
<g clip-path="url(#clip0)">
<path d="M8.49992 10.9374C6.48516 10.9374 4.85423 9.3321 4.70415 7.29772L1.91775 5.08097C1.55145 5.55401 1.21438 6.05413 0.942378 6.601C0.881614 6.72474 0.849955 6.86144 0.849955 7.00009C0.849955 7.13873 0.881614 7.27543 0.942378 7.39917C2.38286 10.2924 5.2346 12.2499 8.49992 12.2499C9.21472 12.2499 9.90428 12.1406 10.5689 11.9639L9.19054 10.8661C8.96291 10.9113 8.73175 10.9352 8.49992 10.9374ZM16.8357 12.5261L13.8993 10.1899C14.7913 9.41602 15.5249 8.46729 16.0575 7.39889C16.1182 7.27516 16.1499 7.13846 16.1499 6.99981C16.1499 6.86117 16.1182 6.72446 16.0575 6.60073C14.617 3.70749 11.7652 1.74995 8.49992 1.74995C7.13235 1.75166 5.787 2.10607 4.58674 2.78081L1.20747 0.0920981C1.1634 0.0567994 1.11301 0.0307854 1.05918 0.0155425C1.00534 0.000299647 0.949113 -0.00387323 0.893709 0.00326233C0.838305 0.0103979 0.784809 0.028702 0.73628 0.0571287C0.687751 0.0855554 0.645139 0.123548 0.610878 0.168934L0.0894579 0.859911C0.020289 0.951508 -0.0107052 1.06764 0.00329218 1.18276C0.0172895 1.29787 0.0751322 1.40256 0.164098 1.47378L15.7924 13.9078C15.8364 13.9431 15.8868 13.9691 15.9407 13.9844C15.9945 13.9996 16.0507 14.0038 16.1061 13.9966C16.1615 13.9895 16.215 13.9712 16.2636 13.9428C16.3121 13.9143 16.3547 13.8764 16.389 13.831L16.9106 13.14C16.9798 13.0484 17.0107 12.9322 16.9967 12.8171C16.9826 12.702 16.9247 12.5973 16.8357 12.5261ZM11.9557 8.64331L10.9118 7.8126C10.9997 7.55105 11.0463 7.27669 11.0499 6.99995C11.0551 6.59479 10.9679 6.19402 10.7953 5.82984C10.6228 5.46566 10.3696 5.14822 10.0563 4.90302C9.74289 4.65781 9.37802 4.49168 8.99097 4.41797C8.60392 4.34426 8.20547 4.36502 7.82762 4.47858C7.9878 4.70201 8.07444 4.97227 8.07492 5.24995C8.07096 5.34235 8.05724 5.43404 8.03401 5.52339L6.07875 3.9678C6.75795 3.38352 7.61479 3.06312 8.49992 3.06245C9.0023 3.06216 9.49981 3.16381 9.96401 3.36159C10.4282 3.55936 10.85 3.84939 11.2052 4.21508C11.5605 4.58076 11.8422 5.01494 12.0343 5.49279C12.2264 5.97064 12.3252 6.48279 12.3249 6.99995C12.3249 7.59139 12.1844 8.14237 11.9557 8.64331Z" fill="#4A4947"/>
</g>
<defs>
<clipPath id="clip0">
<rect width="17" height="14" fill="white"/>
</clipPath>
</defs>
</svg>
